<?xml version="1.0" encoding="utf-8"?>
<!-- Generator: Adobe Illustrator 21.1.0, SVG Export Plug-In . SVG Version: 6.00 Build 0)  -->
<svg version="1.1" id="图层_1" xmlns="http://www.w3.org/2000/svg" xmlns:xlink="http://www.w3.org/1999/xlink" x="0px" y="0px"
	 viewBox="0 0 60 360" style="enable-background:new 0 0 60 360;" xml:space="preserve">
<style type="text/css">
	.st0{fill:none;stroke:#DDDDDD;stroke-miterlimit:10;}
	.st1{fill:#DDDDDD;}
	.st2{fill:#8C8C8C;}
</style>
<g>
	<path class="st0" d="M0.7,359.2c6.7,0,10.8-27,10.8-32.5c0-5.4,0-288.1,0-293.5S7.4,0.8,0.7,0.8"/>
	<rect x="11.3" y="162.1" class="st1" width="37.8" height="35.8"/>
	<g>
		<path class="st2" d="M27.3,176.5c0-0.1-0.1-0.3-0.2-0.4l-2-1.1c1.7-2,4.2-3.2,6.9-3.2c5,0,9.1,4.1,9.1,9.1c0,0.7,0.5,1.2,1.2,1.2
			c0.7,0,1.2-0.5,1.2-1.2c0-6.4-5.2-11.6-11.6-11.6c-3.3,0-6.4,1.4-8.6,3.8l-0.9-1.7c-0.1-0.1-0.2-0.2-0.4-0.2
			c-0.1,0-0.3,0.1-0.3,0.3l-2,6.7c0,0.1,0,0.3,0.1,0.4c0.1,0.1,0.2,0.1,0.4,0.1l6.7-2C27.2,176.7,27.3,176.6,27.3,176.5z"/>
		<path class="st2" d="M44.2,183.7c-0.1-0.1-0.2-0.1-0.4-0.1l-6.7,2c-0.1,0-0.2,0.2-0.3,0.3c0,0.1,0.1,0.3,0.2,0.4l2,1.1
			c-1.7,2-4.2,3.2-6.9,3.2c-5,0-9.1-4.1-9.1-9.1c0-0.7-0.5-1.2-1.2-1.2c-0.7,0-1.2,0.5-1.2,1.2c0,6.4,5.2,11.6,11.6,11.6
			c3.3,0,6.4-1.4,8.6-3.8l0.9,1.7c0.1,0.1,0.2,0.2,0.4,0.2c0.1,0,0.3-0.1,0.3-0.3l2-6.7C44.3,183.9,44.2,183.8,44.2,183.7z"/>
		<path class="st2" d="M28.1,181.2c0,2.2,1.8,4,4,4c2.2,0,4-1.8,4-4c0-2.2-1.8-4-4-4C29.9,177.1,28.1,179,28.1,181.2z"/>
	</g>
	<polygon class="st1" points="59.3,180.3 46.2,154.9 46.2,205.6 	"/>
</g>
</svg>
